<?xml version="1.0" encoding="UTF-8"?>
<svg viewBox="0 0 500 1000" xmlns="http://www.w3.org/2000/svg">
 <path d="m63.759 13.759h372.48a50 50 0 0 1 50 50v872.48a50 50 0 0 1 -50 50h-372.48a50 50 0 0 1 -50 -50v-872.48a50 50 0 0 1 50 -50" fill="#fff" fill-rule="evenodd" stroke="#000" stroke-linejoin="round" stroke-width="27.517"/>
 <path d="m45 500h410" fill="none" stroke="#000" stroke-width="10"/>
 <path d="m160 404.64a50 50 0 1 0 -100 0 50 50 0 1 0 100 0"/>
 <path d="m440 116.64a50 50 0 1 0 -100 0 50 50 0 1 0 100 0"/>
 <path d="m160 884.64a50 50 0 1 0 -100 0 50 50 0 1 0 100 0"/>
 <path d="m160 740.64a50 50 0 1 0 -100 0 50 50 0 1 0 100 0"/>
 <path d="m160 596.64a50 50 0 1 0 -100 0 50 50 0 1 0 100 0"/>
 <path d="m440 884.64a50 50 0 1 0 -100 0 50 50 0 1 0 100 0"/>
 <path d="m440 740.64a50 50 0 1 0 -100 0 50 50 0 1 0 100 0"/>
 <path d="m440 596.64a50 50 0 1 0 -100 0 50 50 0 1 0 100 0"/>
 <path d="m160 115a50 50 0 1 0 -100 0 50 50 0 1 0 100 0"/>
 <path d="m440 403a50 50 0 1 0 -100 0 50 50 0 1 0 100 0"/>
 <path d="m300 259a50 50 0 1 0 -100 0 50 50 0 1 0 100 0"/>
</svg>
